<svg version="1.0" xmlns="http://www.w3.org/2000/svg"
 width="60" viewBox="0 0 312.000000 379.000000"
 preserveAspectRatio="xMidYMid meet">

<g transform="translate(0.000000,379.000000) scale(0.100000,-0.100000)"
fill="currentColor" stroke="none">
<path d="M1107 3780 c-87 -22 -168 -89 -252 -210 -55 -78 -114 -138 -160 -162
-21 -11 -87 -36 -144 -55 -167 -54 -233 -102 -279 -203 -23 -49 -26 -72 -32
-230 -8 -200 -10 -206 -111 -347 -107 -148 -140 -240 -120 -333 14 -67 40
-116 122 -231 98 -137 101 -146 110 -344 4 -93 12 -186 18 -206 21 -70 110
-165 172 -184 10 -4 19 -11 19 -17 0 -7 -70 -209 -155 -450 -92 -260 -152
-445 -148 -455 11 -32 36 -53 62 -53 14 -1 124 9 244 22 l217 22 168 -167
c145 -144 173 -167 199 -167 21 0 38 8 50 24 11 13 82 201 158 419 l139 395
61 18 c76 24 154 24 230 0 l61 -18 139 -395 c76 -218 147 -406 158 -419 12
-16 29 -24 50 -24 26 0 54 23 199 167 l168 167 217 -22 c120 -13 230 -23 244
-22 32 0 62 31 62 64 0 13 -69 217 -152 453 -83 237 -151 435 -151 441 0 6 9
13 19 17 62 19 151 114 172 184 6 20 14 113 18 206 9 198 12 207 110 344 82
115 108 164 122 231 20 93 -13 185 -120 333 -101 141 -103 147 -111 347 -6
158 -9 181 -32 230 -46 101 -112 149 -281 205 -59 19 -124 43 -145 54 -45 24
-104 84 -165 171 -145 206 -258 243 -497 164 -160 -53 -241 -53 -395 -2 -122
40 -201 52 -258 38z m248 -182 c83 -30 99 -32 205 -32 106 0 124 3 225 37 133
45 207 49 251 15 37 -29 36 -27 120 -139 120 -159 173 -196 362 -257 50 -16
111 -41 135 -55 70 -41 80 -72 88 -272 8 -206 19 -241 120 -382 147 -204 147
-236 9 -428 -59 -82 -96 -147 -112 -200 -5 -16 -13 -107 -17 -201 -10 -236
-22 -253 -209 -315 -209 -69 -255 -101 -375 -262 -47 -63 -100 -125 -119 -138
-50 -36 -126 -32 -268 16 -101 34 -126 38 -210 38 -84 0 -109 -4 -210 -38
-150 -50 -219 -53 -274 -11 -21 15 -58 56 -82 90 -142 196 -185 229 -377 295
-221 75 -227 84 -238 325 -4 94 -12 185 -17 201 -16 53 -53 118 -112 200 -79
110 -102 156 -102 208 0 54 20 93 111 220 101 141 112 176 120 382 10 248 16
256 246 335 182 63 218 89 339 249 85 112 83 110 121 140 27 21 37 23 105 18
49 -4 107 -17 165 -39z m-649 -2426 c48 -25 72 -51 158 -169 106 -145 172
-192 287 -202 l65 -6 -88 -250 c-48 -137 -95 -270 -104 -293 l-16 -44 -142
141 c-79 78 -149 141 -158 141 -8 0 -98 -9 -198 -20 -101 -11 -185 -19 -186
-17 -3 2 199 583 252 724 l15 42 38 -14 c21 -7 56 -22 77 -33z m1963 -347 c72
-203 129 -370 127 -372 -1 -2 -85 6 -186 17 -100 11 -190 20 -198 20 -9 0 -79
-63 -158 -141 l-142 -141 -16 44 c-9 23 -56 156 -104 293 l-88 250 67 6 c76 8
148 41 198 93 16 17 65 78 108 135 87 117 103 131 188 166 45 18 62 21 67 12
4 -7 65 -179 137 -382z"/>
<path d="M1373 3345 c-217 -39 -413 -142 -569 -299 -419 -421 -417 -1091 4
-1512 126 -126 282 -218 456 -268 544 -158 1117 139 1304 675 194 553 -100
1165 -652 1358 -167 59 -375 77 -543 46z m422 -155 c335 -89 586 -350 672
-698 25 -102 23 -303 -5 -416 -45 -180 -133 -328 -274 -462 -175 -165 -381
-245 -628 -245 -179 0 -329 41 -482 131 -84 51 -213 171 -274 257 -129 180
-191 423 -165 643 25 202 115 392 256 535 145 148 300 232 500 271 100 19 297
12 400 -16z"/>
<path d="M1512 2917 c-12 -12 -53 -89 -92 -170 -55 -114 -75 -148 -93 -152
-12 -2 -89 -14 -172 -26 -82 -11 -157 -25 -167 -30 -21 -11 -38 -41 -38 -65 0
-10 60 -77 132 -151 l132 -133 -27 -163 c-15 -89 -27 -172 -27 -184 0 -29 33
-63 63 -64 12 0 94 37 182 82 l160 81 152 -81 c84 -45 164 -81 178 -81 31 0
65 32 65 63 0 12 -12 95 -27 184 l-27 163 132 133 c72 74 132 141 132 151 0
24 -17 54 -38 65 -10 5 -85 19 -167 30 -83 12 -160 24 -173 26 -17 4 -37 37
-92 152 -39 81 -80 158 -92 170 -27 29 -69 29 -96 0z m103 -318 c28 -55 58
-107 67 -116 10 -9 57 -22 105 -29 49 -8 103 -16 122 -20 l34 -5 -91 -92
c-105 -105 -102 -94 -73 -252 10 -55 18 -101 16 -103 -1 -1 -49 23 -106 53
-57 30 -115 55 -128 55 -13 0 -71 -25 -129 -55 -57 -31 -106 -54 -107 -53 -1
2 6 48 16 103 29 158 32 147 -72 251 -105 105 -110 93 51 115 47 6 95 18 108
25 12 8 46 62 75 119 28 58 54 105 57 105 3 0 28 -45 55 -101z"/>
</g>
</svg>
