
<svg version="1.0" xmlns="http://www.w3.org/2000/svg"
 width="50" height="auto" viewBox="0 0 369.000000 369.000000"
 preserveAspectRatio="xMidYMid meet">

<g transform="translate(0.000000,369.000000) scale(0.100000,-0.100000)"
fill="currentColor" stroke="none">
<path d="M1841 3669 c-5 -13 -46 -265 -92 -559 -45 -294 -85 -538 -88 -542 -4
-5 -166 190 -361 432 -195 242 -359 438 -365 436 -5 -2 -9 -10 -7 -17 2 -8 93
-247 203 -532 111 -285 199 -520 197 -521 -1 -2 -241 89 -531 202 -333 129
-532 201 -538 195 -6 -6 156 -142 437 -369 419 -337 444 -359 417 -365 -15 -4
-270 -45 -565 -90 -387 -60 -538 -87 -538 -96 0 -7 3 -13 8 -13 4 -1 259 -40
566 -88 l559 -88 -104 -85 c-57 -47 -257 -208 -444 -359 -187 -150 -342 -275
-344 -277 -3 -2 0 -7 5 -12 5 -6 222 73 538 195 291 113 530 203 532 201 3 -3
-299 -792 -403 -1054 -3 -7 2 -13 10 -13 8 0 174 198 369 439 194 241 356 436
359 432 3 -3 45 -255 92 -559 47 -305 88 -556 91 -560 4 -3 10 -1 15 4 5 5 45
247 90 539 46 292 86 543 89 558 7 27 29 1 362 -412 312 -387 380 -465 380
-433 0 4 -92 243 -203 532 -112 289 -203 527 -201 529 1 1 236 -87 521 -197
285 -110 525 -202 533 -204 8 -2 15 3 15 9 0 7 -196 170 -435 363 -239 193
-436 354 -438 358 -1 4 240 45 535 91 296 45 548 85 561 88 72 17 0 32 -510
112 -293 45 -547 86 -565 89 -30 7 -18 18 410 362 242 195 442 361 445 368 2
6 -1 12 -7 12 -7 0 -246 -91 -532 -201 -286 -111 -523 -199 -526 -195 -3 3 83
235 191 515 109 281 200 519 203 531 3 13 1 20 -8 19 -8 0 -174 -200 -369
-443 -321 -400 -356 -440 -362 -417 -3 14 -43 267 -88 561 -46 294 -86 539
-91 544 -4 5 -12 -2 -18 -15z m99 -641 c44 -284 80 -519 80 -522 0 -22 54 41
350 408 184 228 336 413 338 411 2 -2 -82 -227 -188 -500 -105 -273 -190 -499
-187 -501 3 -3 227 81 498 186 271 104 496 189 501 188 4 -2 -180 -153 -408
-337 -227 -183 -414 -337 -414 -341 0 -4 78 -19 173 -34 94 -15 339 -53 542
-85 311 -49 363 -59 325 -65 -25 -4 -267 -42 -539 -85 -272 -42 -496 -81 -497
-86 -2 -6 182 -158 408 -340 226 -181 406 -331 401 -332 -5 -2 -229 82 -499
186 -269 104 -490 186 -492 182 -1 -4 83 -229 188 -500 105 -272 189 -495 187
-498 -3 -2 -154 182 -337 409 -183 227 -336 415 -341 416 -5 2 -9 -2 -9 -10
-1 -7 -38 -251 -84 -543 -54 -347 -85 -520 -89 -500 -4 17 -41 253 -82 525
-42 272 -80 504 -84 514 -6 16 -69 -57 -346 -402 -187 -231 -341 -419 -343
-418 -1 2 83 225 188 497 105 271 189 498 188 504 -2 7 -200 -65 -502 -181
-275 -107 -501 -192 -503 -191 -1 2 186 156 417 342 232 186 417 341 413 345
-4 3 -237 42 -518 85 -280 43 -520 81 -533 84 -13 4 219 44 515 90 296 46 540
85 542 87 6 6 43 -25 -422 349 -224 180 -406 329 -404 332 3 2 220 -79 483
-181 264 -102 487 -188 497 -192 11 -4 17 -1 17 7 0 8 -85 234 -190 504 -104
269 -188 491 -186 493 2 2 154 -183 336 -410 183 -227 335 -415 336 -417 12
-14 26 58 96 507 83 538 90 575 94 552 2 -8 40 -248 84 -532z"/>
</g>
</svg>
